<!-- icon666.com - MILLIONS OF FREE VECTOR ICONS --><svg version="1.1" id="Layer_1" xmlns="http://www.w3.org/2000/svg" xmlns:xlink="http://www.w3.org/1999/xlink" x="0px" y="0px" viewBox="0 0 511.992 511.992" style="enable-background:new 0 0 511.992 511.992;" xml:space="preserve"><g><g><g><path d="M400,353.208c-0.112,0-0.24,0-0.352,0l-3.808,0.208c-106.368,0-192.912-86.176-192.912-192.096 c0-37.168,10.8-73.312,31.216-104.544c3.248-4.976,3.488-11.328,0.608-16.512c-2.896-5.2-8.768-8.592-14.32-8.256 C98.896,34.408,0,134.84,0,255.912C0,379.48,100.896,480.008,224.912,480.008c76.272,0,146.736-38.144,188.48-102.048 c3.248-4.976,3.488-11.328,0.592-16.528C411.152,356.344,405.792,353.208,400,353.208z M224.912,448.008 C118.528,448.008,32,361.832,32,255.912c0-93.92,69.488-173.36,159.984-189.12c-13.84,29.504-21.056,61.664-21.056,94.512 c0,114.432,86.512,209.104,197.776,222.48C332.352,424.44,280.416,448.008,224.912,448.008z"></path><path d="M511.584,80.248c-0.96-2.848-3.424-4.912-6.384-5.36l-34.464-5.28L455.232,36.6c-2.624-5.632-11.84-5.632-14.464,0 l-15.504,33.008l-34.464,5.28c-2.976,0.448-5.44,2.528-6.384,5.36c-0.944,2.848-0.224,5.984,1.872,8.128l25.168,25.808 l-5.952,36.544c-0.496,3.024,0.784,6.064,3.28,7.824c2.512,1.76,5.792,1.968,8.48,0.464L448,142.008L478.736,159 c1.216,0.672,2.544,1.008,3.872,1.008c1.632,0,3.232-0.496,4.608-1.456c2.496-1.76,3.776-4.8,3.28-7.824l-5.952-36.544 l25.168-25.808C511.808,86.232,512.528,83.096,511.584,80.248z M470.288,105.896c-1.776,1.824-2.576,4.368-2.176,6.88 l3.952,24.272l-20.192-11.168c-1.2-0.672-2.544-1.008-3.872-1.008s-2.672,0.336-3.872,1.008l-20.192,11.168l3.952-24.272 c0.4-2.512-0.384-5.056-2.176-6.88l-17.12-17.552l23.296-3.568c2.64-0.4,4.912-2.096,6.032-4.512L448,58.824l10.08,21.44 c1.12,2.416,3.392,4.112,6.032,4.512l23.296,3.568L470.288,105.896z"></path><path d="M344.768,212.616l-10.544,22.464l-23.424,3.584c-2.976,0.448-5.44,2.528-6.368,5.36c-0.96,2.848-0.256,5.984,1.856,8.128 l17.168,17.616l-4.064,24.96c-0.496,3.024,0.784,6.064,3.28,7.824c2.496,1.776,5.792,1.968,8.48,0.464L352,291.48L372.848,303 c1.216,0.672,2.544,1.008,3.872,1.008c1.632,0,3.232-0.496,4.608-1.456c2.496-1.76,3.776-4.8,3.28-7.824l-4.064-24.96 l17.168-17.616c2.112-2.144,2.816-5.28,1.856-8.128c-0.944-2.848-3.408-4.912-6.368-5.36l-23.424-3.584l-10.544-22.464 C356.608,207,347.392,207,344.768,212.616z M352,234.84l5.12,10.896c1.12,2.416,3.392,4.112,6.032,4.512l12.256,1.872 l-9.12,9.344c-1.776,1.824-2.576,4.368-2.176,6.88l2.064,12.688l-10.304-5.696c-1.2-0.672-2.544-1.008-3.872-1.008 s-2.672,0.336-3.872,1.008l-10.304,5.696l2.064-12.688c0.4-2.512-0.384-5.056-2.176-6.88l-9.12-9.344l12.256-1.872 c2.64-0.4,4.912-2.096,6.032-4.512L352,234.84z"></path><path d="M275.456,125.752l-4.064,24.96c-0.496,3.024,0.784,6.064,3.28,7.824c2.512,1.76,5.776,1.968,8.48,0.464L304,147.48 L324.848,159c1.216,0.672,2.544,1.008,3.872,1.008c1.632,0,3.232-0.496,4.608-1.456c2.496-1.76,3.776-4.8,3.28-7.824 l-4.064-24.96l17.168-17.616c2.112-2.144,2.816-5.28,1.856-8.128c-0.944-2.848-3.408-4.912-6.368-5.36l-23.424-3.584 l-10.544-22.464c-2.624-5.616-11.84-5.616-14.464,0L286.224,91.08L262.8,94.664c-2.976,0.448-5.44,2.528-6.368,5.36 c-0.96,2.848-0.256,5.984,1.856,8.128L275.456,125.752z M292.848,106.248c2.64-0.4,4.912-2.096,6.032-4.512L304,90.84 l5.12,10.912c1.12,2.416,3.392,4.112,6.032,4.512l12.256,1.872l-9.12,9.344c-1.776,1.824-2.576,4.368-2.176,6.88l2.064,12.688 l-10.304-5.696c-1.2-0.672-2.544-1.008-3.872-1.008s-2.672,0.336-3.872,1.008l-10.304,5.696l2.064-12.688 c0.4-2.512-0.384-5.056-2.176-6.88l-9.12-9.344L292.848,106.248z"></path></g></g></g></svg>