<!-- icon666.com - MILLIONS OF FREE VECTOR ICONS --><svg xmlns="http://www.w3.org/2000/svg" viewBox="0 0 32 32"><g id="Layer_2" data-name="Layer 2"><path d="M30.209,13.022l-2.764-.592a11.871,11.871,0,0,0-.827-2l1.535-2.373a1,1,0,0,0-.132-1.25L25.192,3.979a1,1,0,0,0-1.25-.132L21.569,5.382a11.871,11.871,0,0,0-2-.827l-.592-2.764A1,1,0,0,0,18,1H14a1,1,0,0,0-.978.791L12.43,4.555a11.871,11.871,0,0,0-2,.827L8.058,3.847a1,1,0,0,0-1.25.132L3.979,6.808a1,1,0,0,0-.132,1.25l1.535,2.373a11.871,11.871,0,0,0-.827,2l-2.764.592A1,1,0,0,0,1,14v4a1,1,0,0,0,.791.978l2.764.592a11.871,11.871,0,0,0,.827,2L3.847,23.942a1,1,0,0,0,.132,1.25l2.829,2.829a1,1,0,0,0,1.25.132l2.373-1.535a11.871,11.871,0,0,0,2,.827l.592,2.764A1,1,0,0,0,14,31h4a1,1,0,0,0,.978-.791l.592-2.764a11.871,11.871,0,0,0,2-.827l2.373,1.535a1,1,0,0,0,1.25-.132l2.829-2.829a1,1,0,0,0,.132-1.25l-1.535-2.373a11.871,11.871,0,0,0,.827-2l2.764-.592A1,1,0,0,0,31,18V14A1,1,0,0,0,30.209,13.022ZM29,17.191l-2.562.549a1,1,0,0,0-.76.731A9.93,9.93,0,0,1,24.592,21.1a1,1,0,0,0,.019,1.054l1.424,2.2L24.35,26.035l-2.2-1.424a1,1,0,0,0-1.054-.019,9.93,9.93,0,0,1-2.625,1.086,1,1,0,0,0-.731.76L17.191,29H14.809l-.549-2.562a1,1,0,0,0-.731-.76A9.93,9.93,0,0,1,10.9,24.592a1,1,0,0,0-1.054.019l-2.2,1.424L5.965,24.35l1.424-2.2A1,1,0,0,0,7.408,21.1a9.93,9.93,0,0,1-1.086-2.625,1,1,0,0,0-.76-.731L3,17.191V14.809l2.562-.549a1,1,0,0,0,.76-.731A9.93,9.93,0,0,1,7.408,10.9,1,1,0,0,0,7.389,9.85L5.965,7.65,7.65,5.965l2.2,1.424a1,1,0,0,0,1.054.019,9.93,9.93,0,0,1,2.625-1.086,1,1,0,0,0,.731-.76L14.809,3h2.382l.549,2.562a1,1,0,0,0,.731.76A9.93,9.93,0,0,1,21.1,7.408a1,1,0,0,0,1.054-.019l2.2-1.424L26.035,7.65l-1.424,2.2a1,1,0,0,0-.019,1.054,9.93,9.93,0,0,1,1.086,2.625,1,1,0,0,0,.76.731L29,14.809Z" fill="#000000" style="fill: rgb(255, 255, 255);"></path><path d="M16,9a7,7,0,1,0,7,7A7.008,7.008,0,0,0,16,9Zm0,12a5,5,0,1,1,5-5A5.006,5.006,0,0,1,16,21Z" fill="#000000" style="fill: rgb(255, 255, 255);"></path></g></svg>