<!-- icon666.com - MILLIONS OF FREE VECTOR ICONS --><svg id="Layer_1" viewBox="0 0 512 512" xmlns="http://www.w3.org/2000/svg" data-name="Layer 1"><path d="m256 402.314c-80.678 0-146.314-65.636-146.314-146.313s65.637-146.314 146.314-146.314 146.314 65.636 146.314 146.314-65.636 146.313-146.314 146.313zm0-272.627c-69.65 0-126.314 56.664-126.314 126.314s56.664 126.313 126.314 126.313 126.314-56.664 126.314-126.313-56.664-126.314-126.314-126.314zm0 376.313c-5.523 0-10-4.477-10-10v-48.807c0-5.523 4.478-10 10-10s10 4.478 10 10v48.807c0 5.522-4.478 10-10 10zm120.009-32.152c-3.456 0-6.817-1.793-8.669-5.001l-24.403-42.269c-2.761-4.783-1.123-10.899 3.66-13.66 4.782-2.763 10.899-1.123 13.66 3.66l24.403 42.269c2.761 4.783 1.123 10.899-3.66 13.66-1.575.909-3.294 1.341-4.991 1.341zm-240.019 0c-1.697 0-3.416-.432-4.991-1.341-4.783-2.761-6.421-8.877-3.66-13.66l24.404-42.268c2.762-4.784 8.876-6.421 13.66-3.66 4.783 2.761 6.421 8.877 3.66 13.66l-24.404 42.268c-1.852 3.208-5.214 5.001-8.669 5.001zm-87.828-87.846c-3.456 0-6.817-1.793-8.669-5.001-2.761-4.783-1.123-10.899 3.66-13.66l42.269-24.403c4.782-2.762 10.899-1.123 13.66 3.66s1.123 10.899-3.66 13.66l-42.269 24.403c-1.575.909-3.294 1.341-4.991 1.341zm415.674 0c-1.697 0-3.416-.432-4.991-1.341l-42.268-24.404c-4.783-2.761-6.421-8.877-3.66-13.66 2.761-4.784 8.877-6.422 13.66-3.66l42.268 24.404c4.783 2.761 6.421 8.877 3.66 13.66-1.852 3.208-5.214 5.001-8.669 5.001zm-399.028-120.002s0 0 0 0h-48.808c-5.523 0-10-4.478-10-10s4.478-10 10-10h48.808c5.523 0 10 4.478 10 10s-4.478 10-10 10zm431.192 0h-48.807c-5.523 0-10-4.478-10-10s4.478-10 10-10h48.807c5.523 0 10 4.478 10 10s-4.478 10-10 10zm-405.587-95.595c-1.697 0-3.416-.432-4.991-1.341l-42.269-24.404c-4.783-2.761-6.421-8.877-3.66-13.66 2.761-4.784 8.876-6.422 13.66-3.66l42.269 24.404c4.783 2.761 6.421 8.877 3.66 13.66-1.852 3.208-5.214 5.001-8.669 5.001zm331.173 0c-3.456 0-6.817-1.793-8.669-5.001-2.761-4.783-1.123-10.899 3.66-13.66l42.269-24.403c4.782-2.763 10.899-1.123 13.66 3.66s1.123 10.899-3.66 13.66l-42.269 24.403c-1.575.909-3.294 1.341-4.991 1.341zm-261.173-69.981c-3.456 0-6.817-1.793-8.669-5.001l-24.403-42.269c-2.761-4.783-1.123-10.899 3.66-13.66 4.783-2.763 10.899-1.123 13.66 3.66l24.403 42.269c2.761 4.783 1.123 10.899-3.66 13.66-1.575.909-3.294 1.341-4.991 1.341zm191.174 0c-1.697 0-3.416-.432-4.991-1.341-4.783-2.761-6.421-8.877-3.66-13.66l24.404-42.269c2.762-4.783 8.877-6.422 13.66-3.66 4.783 2.761 6.421 8.877 3.66 13.66l-24.404 42.269c-1.852 3.208-5.214 5.001-8.669 5.001zm-95.587-25.616c-5.523 0-10-4.477-10-10v-48.808c0-5.523 4.477-10 10-10s10 4.477 10 10v48.808c0 5.523-4.477 10-10 10z"></path></svg>