<!-- icon666.com - MILLIONS OF FREE VECTOR ICONS --><svg enable-background="new 0 0 64 64" viewBox="0 0 64 64" xmlns="http://www.w3.org/2000/svg"><g id="Layer_14"><path d="m58.9 4.37c-.24-.22-.58-.27-.86-.12l-52.77 27.23c-.28.15-.44.47-.39.78.05.32.29.57.61.63l22.72 3.9 5.13 22.46c.07.32.34.55.66.58.02 0 .05.01.07.01.3 0 .56-.18.689-.45l24.311-54.17c.13-.29.06-.63-.17-.85zm-24.6 52.37-4.74-20.77c-.07-.3-.31-.52-.61-.58l-21-3.6 48.87-25.23z" fill="#ed1e25" style="fill: rgb(255, 255, 255);"></path><path d="m56.82 6.56-22.52 50.18-4.74-20.77c-.07-.3-.31-.52-.61-.58l-21-3.6z" fill="#f16b7d" style="fill: rgb(255, 255, 255);"></path></g></svg>