<!-- icon666.com - MILLIONS OF FREE VECTOR ICONS --><svg version="1.1" id="Capa_1" xmlns="http://www.w3.org/2000/svg" xmlns:xlink="http://www.w3.org/1999/xlink" x="0px" y="0px" viewBox="0 0 469.349 469.349" style="enable-background:new 0 0 469.349 469.349;" xml:space="preserve"><g><g><g><path d="M234.675,0C117.043,0,21.341,95.701,21.341,213.333v245.333c0,4.139,2.411,7.915,6.165,9.664 c1.429,0.683,2.965,1.003,4.501,1.003c2.453,0,4.907-0.853,6.869-2.496l43.904-36.885l43.904,36.885 c3.989,3.328,9.771,3.349,13.739,0l43.797-36.885l43.797,36.885c3.989,3.349,9.771,3.349,13.76,0l43.797-36.885l43.733,36.885 c3.989,3.349,9.771,3.349,13.76,0l43.669-36.864l43.755,36.864c3.2,2.667,7.616,3.264,11.371,1.515 c3.733-1.749,6.144-5.547,6.144-9.685V213.333C448.008,95.701,352.307,0,234.675,0z M426.675,435.733l-33.109-27.883 c-3.989-3.349-9.771-3.349-13.76,0l-43.648,36.864l-43.733-36.864c-3.968-3.349-9.771-3.371-13.76,0l-43.797,36.885 l-43.797-36.885c-3.968-3.349-9.771-3.371-13.76,0l-43.819,36.885l-43.904-36.885c-1.941-1.685-4.373-2.517-6.827-2.517 c-2.453,0-4.885,0.832-6.869,2.496l-33.216,27.947V213.333c0-105.856,86.144-192,192-192s192,86.144,192,192V435.733z" fill="#000000" style="fill: rgb(255, 255, 255);"></path><path d="M170.675,149.333c-23.531,0-42.667,19.136-42.667,42.667c0,23.531,19.136,42.667,42.667,42.667 s42.667-19.136,42.667-42.667C213.341,168.469,194.205,149.333,170.675,149.333z M170.675,213.333 c-11.755,0-21.333-9.579-21.333-21.333c0-11.755,9.579-21.333,21.333-21.333s21.333,9.579,21.333,21.333 C192.008,203.755,182.429,213.333,170.675,213.333z" fill="#000000" style="fill: rgb(255, 255, 255);"></path><path d="M298.675,149.333c-23.531,0-42.667,19.136-42.667,42.667c0,23.531,19.136,42.667,42.667,42.667 c23.531,0,42.667-19.136,42.667-42.667C341.341,168.469,322.205,149.333,298.675,149.333z M298.675,213.333 c-11.755,0-21.333-9.579-21.333-21.333c0-11.755,9.579-21.333,21.333-21.333s21.333,9.579,21.333,21.333 C320.008,203.755,310.429,213.333,298.675,213.333z" fill="#000000" style="fill: rgb(255, 255, 255);"></path></g></g></g></svg>